<?xml version="1.0" encoding="utf-8"?>
<!-- Generator: Adobe Illustrator 16.0.0, SVG Export Plug-In . SVG Version: 6.00 Build 0)  -->
<!DOCTYPE svg PUBLIC "-//W3C//DTD SVG 1.1//EN" "http://www.w3.org/Graphics/SVG/1.1/DTD/svg11.dtd">
<svg version="1.1" id="Layer_1" xmlns="http://www.w3.org/2000/svg" xmlns:xlink="http://www.w3.org/1999/xlink" x="0px" y="0px"
	 width="885.035px" height="347.918px" viewBox="7.483 1.041 885.035 347.918" enable-background="new 7.483 1.041 885.035 347.918"
	 xml:space="preserve">
<g>
	<path fill="#FFFFFF" d="M885.988,316.216c0,15.232-12.445,27.646-27.636,27.646H41.647c-15.2,0-27.624-12.413-27.624-27.646V33.774
		c0-15.21,12.424-27.635,27.624-27.635h816.707c15.189,0,27.636,12.425,27.636,27.635L885.988,316.216L885.988,316.216z"/>
	<rect x="81.341" y="52.351" fill="#91D5E2" width="754.683" height="7.466"/>
	<rect x="81.341" y="113.206" fill="#91D5E2" width="754.683" height="2.806"/>
	<rect x="81.341" y="230.396" fill="#91D5E2" width="389.855" height="2.797"/>
	<rect x="533.491" y="230.396" fill="#91D5E2" width="185.234" height="2.797"/>
	<rect x="804.331" y="230.396" fill="#91D5E2" width="31.39" height="2.797"/>
	<polygon fill="#91D5E2" points="81.341,294.059 132.2,294.059 132.2,307.008 137.956,307.008 137.956,294.059 239.629,294.059 
		239.629,307.008 245.396,307.008 245.396,294.059 347.07,294.059 347.07,307.008 352.826,307.008 352.826,294.059 561.944,294.059 
		561.944,307.008 567.72,307.008 567.72,294.059 669.386,294.059 669.386,307.008 675.162,307.008 675.162,294.059 776.814,294.059 
		776.814,307.008 782.592,307.008 782.592,294.059 836.021,294.059 836.021,286.57 81.341,286.57 	"/>
	<polygon fill="#91D5E2" points="446.554,308.771 468.217,308.771 457.396,297.93 	"/>
	<rect x="185.909" y="299.459" fill="#91D5E2" width="5.788" height="5.786"/>
	<rect x="293.341" y="299.459" fill="#91D5E2" width="5.787" height="5.786"/>
	<rect x="400.782" y="299.459" fill="#91D5E2" width="5.788" height="5.786"/>
	<rect x="723.105" y="299.459" fill="#91D5E2" width="5.774" height="5.786"/>
	<rect x="615.663" y="299.459" fill="#91D5E2" width="5.776" height="5.786"/>
	<rect x="508.211" y="299.459" fill="#91D5E2" width="5.788" height="5.786"/>
	<path fill="#9C9EA1" d="M882.331,316.216c0,12.437-10.112,22.548-22.547,22.548H40.206c-12.414,0-22.525-10.111-22.525-22.548
		v-23.041h20.912v3.356c0,2.236,1.817,4.064,4.034,4.064H54.76c2.239,0,4.056-1.828,4.056-4.064v-12.133
		c0-2.217-1.817-4.045-4.056-4.045H42.626c-2.217,0-4.034,1.828-4.034,4.045v3.377H17.68v-53.14h20.912v3.376
		c0,2.217,1.817,4.047,4.034,4.047h12.133c2.239,0,4.056-1.83,4.056-4.047v-12.156c0-2.215-1.817-4.043-4.056-4.043H42.626
		c-2.217,0-4.034,1.828-4.034,4.043v3.379H17.68V176.05h20.912v3.359c0,2.235,1.817,4.043,4.034,4.043h12.133
		c2.239,0,4.056-1.808,4.056-4.043v-12.163c0-2.215-1.817-4.044-4.056-4.044H42.626c-2.217,0-4.034,1.83-4.034,4.044v3.383H17.68
		v-53.145h20.912v3.347c0,2.226,1.817,4.054,4.034,4.054h12.133c2.239,0,4.056-1.828,4.056-4.054v-12.124
		c0-2.228-1.817-4.044-4.056-4.044H42.626c-2.217,0-4.034,1.817-4.034,4.044v3.345H17.68V58.936h20.912v3.378
		c0,2.215,1.817,4.044,4.034,4.044h12.133c2.239,0,4.056-1.83,4.056-4.044V50.158c0-2.217-1.817-4.035-4.056-4.035H42.626
		c-2.217,0-4.034,1.818-4.034,4.035v3.378H17.68V33.774c0-12.425,10.112-22.536,22.525-22.536h819.579
		c12.435,0,22.547,10.111,22.547,22.536V316.216z M859.784,1.041H40.206c-18.039,0-32.723,14.683-32.723,32.733v282.441
		c0,18.053,14.684,32.744,32.723,32.744h819.579c18.051,0,32.732-14.691,32.732-32.744V33.774
		C892.518,15.724,877.835,1.041,859.784,1.041"/>
	<path fill="#4EBEA4" d="M152.756,145.378c0.033-0.117,0.055-0.213,0.097-0.321c0.043,0.097,0.075,0.194,0.107,0.312l2.516,7.422
		c0.981,2.861,2.056,5.916,3.185,9.121l3.239,9.127c1.011,2.861,1.924,5.378,2.72,7.529c0.345,0.969,0.625,1.765,0.851,2.41h-25.183
		c0.237-0.668,0.528-1.483,0.871-2.475l5.885-16.583c1.129-3.215,2.195-6.27,3.185-9.131L152.756,145.378z M143.398,126.845
		l-33.789,94.433h16.448l9.542-26.12h34.508l9.283,26.12h16.705l-33.776-94.432L143.398,126.845L143.398,126.845z"/>
	<path fill="#4EBEA4" d="M253.28,200.514c-1.958,2.928-4.592,5.164-7.81,6.67c-5.679,2.646-11.725,3.033-17.534,0.946
		c-2.452-0.883-4.678-2.237-6.616-4.022c-1.913-1.765-3.497-4.066-4.68-6.842c-1.183-2.774-1.774-6.108-1.774-9.896
		c0-3.786,0.613-7.12,1.84-9.896c1.194-2.73,2.797-5.057,4.744-6.842c1.915-1.78,4.119-3.113,6.529-3.964
		c5.874-2.032,11.843-1.581,16.996,0.893c3.001,1.42,5.55,3.632,7.616,6.557l1.346,1.915l5.894-13.301l-0.613-0.634
		c-3.086-3.261-6.745-5.767-10.864-7.434c-7.638-3.087-18.975-3.529-28.022-0.193c-4.183,1.548-7.896,3.84-10.994,6.82
		c-3.119,2.989-5.604,6.723-7.367,11.105c-1.786,4.369-2.689,9.402-2.689,14.974c0,5.809,0.935,10.973,2.808,15.34
		c1.872,4.411,4.442,8.133,7.605,11.102c3.183,2.97,6.906,5.229,11.068,6.69c4.12,1.465,8.498,2.194,13.017,2.194
		c5.883,0,10.992-0.903,15.177-2.689c4.207-1.806,7.918-4.581,11.027-8.26l0.537-0.625l-5.938-12.521L253.28,200.514z"/>
	<path fill="#4EBEA4" d="M297.342,208.883c-1.731-0.15-3.055-0.494-3.915-1.033c-0.785-0.494-1.28-1.203-1.561-2.215
		c-0.311-1.249-0.484-2.949-0.484-5.076v-34.106h11.532v-12.897h-11.532v-20.47h-15.006v20.47h-9.65v12.897h9.188v36.45
		c0,3.744,0.461,6.929,1.366,9.445c0.957,2.646,2.571,4.797,4.788,6.346c2.151,1.527,4.948,2.584,8.304,3.164
		c3.249,0.559,7.315,0.838,12.048,0.838h1.033l3.365-13.596h-1.689C301.87,209.1,299.278,209.033,297.342,208.883"/>
	<rect x="315.479" y="126.845" fill="#4EBEA4" width="16.297" height="18.062"/>
	<rect x="315.725" y="153.565" fill="#4EBEA4" width="15.707" height="67.731"/>
	<path fill="#4EBEA4" d="M374.318,195.371c-0.57,1.507-1.086,3.271-1.549,5.38c-0.439-1.958-0.937-3.744-1.506-5.38l-15.619-41.806
		h-16.607l25.59,67.71h15.5l24.741-67.71H388.85L374.318,195.371z"/>
	<rect x="412.378" y="153.565" fill="#4EBEA4" width="15.705" height="67.731"/>
	<rect x="412.151" y="126.845" fill="#4EBEA4" width="16.284" height="18.062"/>
	<path fill="#4EBEA4" d="M468.788,208.883c-1.723-0.15-3.055-0.494-3.938-1.033c-0.764-0.494-1.269-1.225-1.537-2.215
		c-0.323-1.249-0.483-2.949-0.483-5.076v-34.106h11.531v-12.897h-11.531v-20.47h-15.007v20.47h-9.648v12.897h9.188v36.45
		c0,3.765,0.462,6.949,1.376,9.445c0.947,2.646,2.562,4.774,4.776,6.346c2.15,1.527,4.938,2.584,8.305,3.164
		c3.259,0.559,7.313,0.838,12.049,0.838h1.032l3.354-13.596h-1.677C473.316,209.1,470.724,209.033,468.788,208.883"/>
	<path fill="#4EBEA4" d="M517.474,193.544c-0.653,2.001-1.183,3.937-1.592,5.765c-0.193-0.666-0.387-1.334-0.603-2.043
		c-0.409-1.312-0.839-2.582-1.335-3.83l-16.823-39.87h-16.643l27.41,64.676c-0.968,2.797-1.894,4.971-2.797,6.627
		c-0.927,1.699-2.055,3.033-3.334,3.98c-1.261,0.924-2.905,1.59-4.854,1.935c-2.073,0.39-4.827,0.583-8.186,0.583h-3.68
		l4.218,13.812h0.99c4.483,0,8.434-0.346,11.746-1.012c3.389-0.711,6.389-1.872,8.887-3.42c2.537-1.57,4.711-3.658,6.453-6.197
		c1.71-2.475,3.194-5.528,4.411-9.102l24.138-71.882H530.23L517.474,193.544z"/>
	<polygon fill="#4EBEA4" points="605.605,126.845 589.299,126.845 589.299,221.275 649.269,221.275 649.269,206.409 
		605.605,206.409 	"/>
	<path fill="#4EBEA4" d="M687.5,165.397c5.271,0,9.487,1.85,12.822,5.664c3.335,3.808,5.033,9.294,5.033,16.307
		c0,3.509-0.463,6.713-1.366,9.53c-0.881,2.775-2.128,5.1-3.68,6.972c-1.536,1.851-3.432,3.271-5.593,4.239
		c-4.229,1.892-9.779,2.021-14.2-0.045c-2.173-1.032-4.077-2.475-5.688-4.322c-1.592-1.872-2.883-4.219-3.798-6.973
		c-0.938-2.774-1.409-5.938-1.409-9.401c0-3.527,0.472-6.688,1.409-9.401c0.915-2.689,2.206-4.99,3.798-6.863
		c1.611-1.844,3.517-3.274,5.679-4.244C682.648,165.892,685.015,165.397,687.5,165.397 M712.048,161.804
		c-2.905-3.066-6.466-5.463-10.596-7.152c-8.165-3.303-19.536-3.345-27.808,0.011c-4.121,1.667-7.692,4.075-10.597,7.141
		c-2.916,3.077-5.174,6.811-6.745,11.107c-1.581,4.26-2.389,9.122-2.389,14.457c0,5.336,0.808,10.22,2.389,14.502
		c1.571,4.346,3.841,8.11,6.756,11.188c2.894,3.055,6.465,5.463,10.586,7.121c4.089,1.678,8.755,2.516,13.854,2.516
		c5.162,0,9.853-0.838,13.952-2.516c4.119-1.658,7.689-4.066,10.596-7.121c2.914-3.078,5.161-6.843,6.701-11.188
		c1.528-4.325,2.302-9.208,2.302-14.502c0-5.205-0.772-10.046-2.302-14.391C717.221,168.657,714.962,164.892,712.048,161.804"/>
	<path fill="#4EBEA4" d="M777.61,174.547v18.223c0,1.914-0.42,3.744-1.217,5.443c-0.85,1.742-1.999,3.227-3.42,4.473
		c-1.43,1.271-3.099,2.305-4.98,3.057c-3.947,1.636-8.831,1.421-12.661-0.063c-2.032-0.774-3.84-2.044-5.377-3.743
		c-1.551-1.699-2.786-3.851-3.668-6.455c-0.894-2.604-1.335-5.809-1.335-9.531c0-3.698,0.441-6.905,1.335-9.508
		c0.882-2.582,2.087-4.733,3.603-6.34c1.519-1.647,3.271-2.819,5.335-3.626c2.067-0.796,4.348-1.205,6.756-1.205
		C769.198,165.268,774.362,168.496,777.61,174.547 M780.624,153.565l-1.528,5.787c-1.624-1.872-3.742-3.431-6.304-4.669
		c-3.56-1.667-7.991-2.527-13.178-2.527c-4.218,0-8.207,0.721-11.831,2.151c-3.66,1.431-6.875,3.604-9.532,6.432
		c-2.668,2.841-4.787,6.391-6.292,10.58c-1.497,4.197-2.249,9.101-2.249,14.628c0,5.466,0.763,10.307,2.249,14.416
		c1.505,4.107,3.656,7.615,6.367,10.392c2.711,2.798,5.96,4.927,9.672,6.261c7.334,2.711,16.78,2.883,23.965-0.56
		c2.248-1.099,4.133-2.366,5.647-3.873v4.906c0,9.637-6.292,14.327-19.275,14.327c-3.69,0-7.757-0.387-12.081-1.14
		c-4.292-0.776-8.185-1.808-11.574-3.12l-2.28-0.86l3.271,15.362l0.709,0.234c1.215,0.389,2.701,0.797,4.443,1.161
		c1.709,0.346,3.55,0.646,5.518,0.903c1.947,0.216,3.959,0.41,6.058,0.58c2.119,0.174,4.185,0.238,6.173,0.238
		c11.488,0,20.106-2.281,25.613-6.756c5.582-4.562,8.425-11.273,8.425-19.986v-64.87L780.624,153.565L780.624,153.565z"/>
</g>
</svg>
